<?xml version="1.0" encoding="UTF-8"?>
<svg version="1.1" xmlns="http://www.w3.org/2000/svg" width="300" height="240">
<path d="M0 0 C99 0 198 0 300 0 C300 79.2 300 158.4 300 240 C201 240 102 240 0 240 C0 160.8 0 81.6 0 0 Z " fill="#07080A" transform="translate(0,0)"/>
<path d="M0 0 C33.33 0 66.66 0 101 0 C95 11 95 11 93 14 C90.30459685 14.26686213 87.84152536 14.34818073 85.1484375 14.29296875 C84.37440582 14.28872391 83.60037415 14.28447906 82.80288696 14.28010559 C80.32657323 14.26328998 77.85106842 14.22563395 75.375 14.1875 C73.69792841 14.17245682 72.02084408 14.15876778 70.34375 14.14648438 C66.22885419 14.11337721 62.11456431 14.06157637 58 14 C57.34 15.65 56.68 17.3 56 19 C54.02 22.63 52.04 26.26 50 30 C60.89 30 71.78 30 83 30 C81.54877547 33.62806134 80.12455815 36.74228784 78.234375 40.11328125 C77.68048096 41.10312012 77.12658691 42.09295898 76.5559082 43.11279297 C75.66198364 44.69664795 75.66198364 44.69664795 74.75 46.3125 C73.82803833 47.95049561 73.82803833 47.95049561 72.88745117 49.62158203 C68.4041971 57.56334639 63.88084541 65.48186064 59.3125 73.375 C58.72500977 74.39634033 58.13751953 75.41768066 57.53222656 76.4699707 C56.70609863 77.88862427 56.70609863 77.88862427 55.86328125 79.3359375 C55.14072144 80.58189697 55.14072144 80.58189697 54.40356445 81.85302734 C53.0950978 83.85453295 51.75848342 85.39133378 50 87 C48.79471335 85.11542462 47.61133551 83.21682415 46.4375 81.3125 C45.77621094 80.25675781 45.11492187 79.20101562 44.43359375 78.11328125 C42.78305086 74.52885978 42.92885839 73.68234681 44 70 C44.89082292 68.16172899 45.85481384 66.35793664 46.87109375 64.5859375 C47.44537109 63.57789063 48.01964844 62.56984375 48.61132812 61.53125 C49.5152832 59.96890625 49.5152832 59.96890625 50.4375 58.375 C51.03626953 57.32570312 51.63503906 56.27640625 52.25195312 55.1953125 C56.5984623 47.60230655 56.5984623 47.60230655 59 44 C47.78 43.67 36.56 43.34 25 43 C28.63768393 35.72463213 32.20668055 28.68880367 36.375 21.75 C36.82488281 20.99332031 37.27476562 20.23664063 37.73828125 19.45703125 C38.82179806 17.63580086 39.91032859 15.81755468 41 14 C40.04222656 14.06807861 39.08445313 14.13615723 38.09765625 14.20629883 C34.51351491 14.44318533 30.93004316 14.59133127 27.34033203 14.71411133 C25.79324796 14.77915148 24.24695322 14.86763807 22.70263672 14.98071289 C10.18751654 15.87349583 10.18751654 15.87349583 6.47998047 12.69818115 C3.88893369 9.54692414 0 4.2189777 0 0 Z " fill="#FAFAFA" transform="translate(95,84)"/>
<path d="M0 0 C2.97 0 5.94 0 9 0 C7.35 3.3 5.7 6.6 4 10 C3.67 8.68 3.34 7.36 3 6 C2.67 5.67 2.34 5.34 2 5 C0 2 0 2 0 0 Z " fill="#121213" transform="translate(146,127)"/>
<path d="M0 0 C1.23593891 3.70781672 0.5678132 4.67510253 -0.9375 8.1875 C-1.31777344 9.08855469 -1.69804687 9.98960937 -2.08984375 10.91796875 C-2.54037109 11.94857422 -2.54037109 11.94857422 -3 13 C-3.99 12.67 -4.98 12.34 -6 12 C-4.02 8.04 -2.04 4.08 0 0 Z " fill="#161617" transform="translate(175,119)"/>
<path d="M0 0 C0.99 0.33 1.98 0.66 3 1 C2.1875 3.9375 2.1875 3.9375 1 7 C0.01 7.33 -0.98 7.66 -2 8 C-2.33 8.66 -2.66 9.32 -3 10 C-3.66 9.67 -4.32 9.34 -5 9 C-3.35 6.03 -1.7 3.06 0 0 Z " fill="#18181A" transform="translate(164,138)"/>
</svg>
