<?xml version="1.0" encoding="UTF-8"?>
<svg version="1.1" xmlns="http://www.w3.org/2000/svg" width="357" height="360">
<path d="M0 0 C117.81 0 235.62 0 357 0 C357 118.8 357 237.6 357 360 C239.19 360 121.38 360 0 360 C0 241.2 0 122.4 0 0 Z " fill="#020202" transform="translate(0,0)"/>
<path d="M0 0 C0.33 0 0.66 0 1 0 C1 20.13 1 40.26 1 61 C-0.65 61 -2.3 61 -4 61 C-4.33 46.48 -4.66 31.96 -5 17 C-10.13175801 23.84234402 -15.22844221 30.66501911 -20.1875 37.625 C-26.45297635 46.36838032 -33.0228336 54.85641035 -39.6940918 63.29272461 C-40.85900475 64.81567026 -41.93642321 66.40463482 -43 68 C3.53 68.495 3.53 68.495 51 69 C49.21016366 73.47459085 47.68717481 75.93894287 44.75 79.625 C40.43348738 85.11093599 36.25165222 90.68241351 32.125 96.3125 C26.77821398 103.59509156 21.39205143 110.84555077 15.95703125 118.0625 C13.87855211 120.82359985 11.81600308 123.59585466 9.76171875 126.375 C9.22627441 127.0966333 8.69083008 127.8182666 8.13916016 128.56176758 C7.12123734 129.93418225 6.10636188 131.30886485 5.09521484 132.6862793 C4.63195801 133.30929932 4.16870117 133.93231934 3.69140625 134.57421875 C3.29123291 135.11651123 2.89105957 135.65880371 2.47875977 136.2175293 C0.48249832 138.62378732 -1.78921536 140.78921536 -4 143 C-4 123.2 -4 103.4 -4 83 C-2.35 83 -0.7 83 1 83 C1.33 97.52 1.66 112.04 2 127 C5.3 122.38 8.6 117.76 12 113 C17 106.5 17 106.5 19.4921875 103.2890625 C22.91302502 98.84117134 26.14514229 94.26171904 29.3828125 89.6796875 C32.8829777 84.75855972 36.44807329 79.88389923 40 75 C8.98 75 -22.04 75 -54 75 C-52.38109145 70.95272862 -51.23204812 68.71309522 -48.65625 65.41015625 C-47.66044922 64.12141602 -47.66044922 64.12141602 -46.64453125 62.80664062 C-45.93683594 61.90107422 -45.22914063 60.99550781 -44.5 60.0625 C-43.02961837 58.15881122 -41.56086513 56.25386356 -40.09375 54.34765625 C-39.38347656 53.42484863 -38.67320312 52.50204102 -37.94140625 51.55126953 C-35.15750041 47.89284196 -32.51025992 44.1515987 -29.86914062 40.38891602 C-25.39001918 34.0579925 -20.63687559 27.93562928 -15.91577148 21.78442383 C-11.42279333 15.91485081 -7.04221011 9.98470475 -2.83007812 3.91015625 C-1.90892935 2.59098022 -0.95805878 1.29261898 0 0 Z " fill="#EDEDED" transform="translate(196,115)"/>
<path d="M0 0 C31.35 0 62.7 0 95 0 C93.21016366 4.47459085 91.68717481 6.93894287 88.75 10.625 C84.43348738 16.11093599 80.25165222 21.68241351 76.125 27.3125 C70.77821398 34.59509156 65.39205143 41.84555077 59.95703125 49.0625 C57.87855211 51.82359985 55.81600308 54.59585466 53.76171875 57.375 C53.22627441 58.0966333 52.69083008 58.8182666 52.13916016 59.56176758 C51.12123734 60.93418225 50.10636188 62.30886485 49.09521484 63.6862793 C48.63195801 64.30929932 48.16870117 64.93231934 47.69140625 65.57421875 C47.09114624 66.38765747 47.09114624 66.38765747 46.47875977 67.2175293 C44.48249832 69.62378732 42.21078464 71.78921536 40 74 C40 54.2 40 34.4 40 14 C41.65 14 43.3 14 45 14 C45.33 28.52 45.66 43.04 46 58 C49.3 53.38 52.6 48.76 56 44 C61 37.5 61 37.5 63.4921875 34.2890625 C66.91302502 29.84117134 70.14514229 25.26171904 73.3828125 20.6796875 C76.8829777 15.75855972 80.44807329 10.88389923 84 6 C52.98 6 21.96 6 -10 6 C-9.67 5.34 -9.34 4.68 -9 4 C38.025 4.495 38.025 4.495 86 5 C86.33 4.01 86.66 3.02 87 2 C58.29 1.67 29.58 1.34 0 1 C0 0.67 0 0.34 0 0 Z " fill="#E1E1E1" transform="translate(152,184)"/>
<path d="M0 0 C38.28 0 76.56 0 116 0 C116 1.98 116 3.96 116 6 C77.72 6 39.44 6 0 6 C0 4.02 0 2.04 0 0 Z " fill="#DEDEDE" transform="translate(136,100)"/>
<path d="M0 0 C0.99 0.33 1.98 0.66 3 1 C3 1.99 3 2.98 3 4 C32.04 4 61.08 4 91 4 C90.34 5.32 89.68 6.64 89 8 C57.65 8 26.3 8 -6 8 C-5 4 -5 4 -3 2 C-2.01 2 -1.02 2 0 2 C0 1.34 0 0.68 0 0 Z " fill="#FCFCFC" transform="translate(149,181)"/>
<path d="M0 0 C0.33 0 0.66 0 1 0 C1 20.13 1 40.26 1 61 C-0.65 61 -2.3 61 -4 61 C-4 46.15 -4 31.3 -4 16 C-5.65 16.33 -7.3 16.66 -9 17 C-9.33 16.01 -9.66 15.02 -10 14 C-8.45476771 11.47651229 -6.89042192 9.17191776 -5.125 6.8125 C-4.65191406 6.15830078 -4.17882812 5.50410156 -3.69140625 4.83007812 C-2.49448051 3.19496162 -1.25092116 1.5941874 0 0 Z " fill="#F6F6F6" transform="translate(196,115)"/>
<path d="M0 0 C0.66 0.66 1.32 1.32 2 2 C1.34 2 0.68 2 0 2 C0.33 2.99 0.66 3.98 1 5 C-0.98 5.66 -2.96 6.32 -5 7 C-3.35 4.69 -1.7 2.38 0 0 Z " fill="#E8E8E8" transform="translate(192,121)"/>
</svg>
